<?xml version="1.0" encoding="UTF-8" standalone="no"?>
<!-- Created with Inkscape (http://www.inkscape.org/) -->

<svg
   xmlns:dc="http://purl.org/dc/elements/1.1/"
   xmlns:cc="http://creativecommons.org/ns#"
   xmlns:rdf="http://www.w3.org/1999/02/22-rdf-syntax-ns#"
   xmlns:svg="http://www.w3.org/2000/svg"
   xmlns="http://www.w3.org/2000/svg"
   xmlns:xlink="http://www.w3.org/1999/xlink"
   xmlns:sodipodi="http://sodipodi.sourceforge.net/DTD/sodipodi-0.dtd"
   xmlns:inkscape="http://www.inkscape.org/namespaces/inkscape"
   width="744.09448819"
   height="1052.3622047"
   id="svg2"
   version="1.1"
   inkscape:version="0.48.2 r9819"
   sodipodi:docname="broken record icon.svg">
  <defs
     id="defs4">
    <inkscape:path-effect
       effect="spiro"
       id="path-effect3979"
       is_visible="true" />
    <linearGradient
       id="linearGradient3785">
      <stop
         style="stop-color:#ffffff;stop-opacity:1;"
         offset="0"
         id="stop3787" />
      <stop
         style="stop-color:#ffffff;stop-opacity:0;"
         offset="1"
         id="stop3789" />
    </linearGradient>
    <linearGradient
       id="linearGradient3769">
      <stop
         style="stop-color:#818181;stop-opacity:1;"
         offset="0"
         id="stop3771" />
      <stop
         style="stop-color:#000000;stop-opacity:1"
         offset="1"
         id="stop3773" />
    </linearGradient>
    <filter
       inkscape:collect="always"
       id="filter3973">
      <feGaussianBlur
         inkscape:collect="always"
         stdDeviation="1.1956522"
         id="feGaussianBlur3975" />
    </filter>
    <radialGradient
       inkscape:collect="always"
       xlink:href="#linearGradient3785"
       id="radialGradient4008"
       gradientUnits="userSpaceOnUse"
       gradientTransform="matrix(0.28158508,-0.35622471,0.92794011,0.73350909,-932.60564,270.98105)"
       cx="15.702575"
       cy="1010.8289"
       fx="15.702575"
       fy="1010.8289"
       r="25" />
    <radialGradient
       inkscape:collect="always"
       xlink:href="#linearGradient3785"
       id="radialGradient4051"
       gradientUnits="userSpaceOnUse"
       gradientTransform="matrix(-0.28158508,0.35622471,-0.92794011,-0.73350909,990.78598,1774.1264)"
       cx="15.702575"
       cy="1010.8289"
       fx="15.702575"
       fy="1010.8289"
       r="25" />
  </defs>
  <sodipodi:namedview
     id="base"
     pagecolor="#ffffff"
     bordercolor="#666666"
     borderopacity="1.0"
     inkscape:pageopacity="0.0"
     inkscape:pageshadow="2"
     inkscape:zoom="1"
     inkscape:cx="-17.973496"
     inkscape:cy="70.819181"
     inkscape:document-units="px"
     inkscape:current-layer="layer1"
     showgrid="false"
     inkscape:window-width="1251"
     inkscape:window-height="1097"
     inkscape:window-x="0"
     inkscape:window-y="17"
     inkscape:window-maximized="0" />
  <metadata
     id="metadata7">
    <rdf:RDF>
      <cc:Work
         rdf:about="">
        <dc:format>image/svg+xml</dc:format>
        <dc:type
           rdf:resource="http://purl.org/dc/dcmitype/StillImage" />
        <dc:title></dc:title>
      </cc:Work>
    </rdf:RDF>
  </metadata>
  <g
     inkscape:label="Layer 1"
     inkscape:groupmode="layer"
     id="layer1">
    <g
       id="g4060"
       inkscape:export-filename="C:\Users\bean\Desktop\path4056.png"
       inkscape:export-xdpi="84.983116"
       inkscape:export-ydpi="84.983116">
      <path
         id="path3823"
         d="M 33.75 995.625 L 35.375 999.25 L 37.125 996.25 L 33.75 995.625 z M 29.09375 997.5625 C 15.286631 997.5625 4.09375 1008.7554 4.09375 1022.5625 C 4.09375 1036.3696 15.286631 1047.5625 29.09375 1047.5625 C 42.900869 1047.5625 54.09375 1036.3696 54.09375 1022.5625 C 54.09375 1012.6789 48.355463 1004.1515 40.03125 1000.0938 L 36.46875 1004.7188 L 39.875 1009.1562 L 32.9375 1016.7812 L 35.34375 1010.4375 L 32.375 1007.2812 L 33.4375 1000 L 31.90625 997.71875 C 30.984511 997.61573 30.042989 997.5625 29.09375 997.5625 z M 29.09375 1021.0625 C 29.922177 1021.0625 30.59375 1021.7341 30.59375 1022.5625 C 30.59375 1023.3909 29.922177 1024.0625 29.09375 1024.0625 C 28.265323 1024.0625 27.59375 1023.3909 27.59375 1022.5625 C 27.59375 1021.7341 28.265323 1021.0625 29.09375 1021.0625 z "
         style="fill:#000000;fill-opacity:1;stroke:none;filter:url(#filter3973)" />
      <path
         inkscape:connector-curvature="0"
         id="path2985"
         d="m 29.09375,997.5625 c -13.807119,0 -25,11.1929 -25,25 0,13.8071 11.192881,25 25,25 13.807119,0 25,-11.1929 25,-25 0,-9.8883 -5.731867,-18.4446 -14.0625,-22.5 l -3.5625,4.6563 3.40625,4.4374 -6.5625,7.2188 c 1.975122,1.3508 3.28125,3.614 3.28125,6.1875 0,4.1421 -3.357864,7.5 -7.5,7.5 -4.142136,0 -7.5,-3.3579 -7.5,-7.5 0,-4.1421 3.357864,-7.5 7.5,-7.5 1.48858,0 2.864697,0.4396 4.03125,1.1875 l 2.21875,-5.8125 -2.96875,-3.1563 1.0625,-7.2812 -1.53125,-2.28125 c -0.921739,-0.10302 -1.863261,-0.15625 -2.8125,-0.15625 z"
         style="fill:#000000;fill-opacity:1;fill-rule:evenodd;stroke:none" />
      <path
         inkscape:connector-curvature="0"
         id="path2989"
         d="m 29.090165,1015.0537 c -4.142136,0 -7.5,3.3579 -7.5,7.5 0,4.1421 3.357864,7.5 7.5,7.5 4.142136,0 7.5,-3.3579 7.5,-7.5 0,-4.1421 -3.357864,-7.5 -7.5,-7.5 z m 0,6 c 0.828427,0 1.5,0.6716 1.5,1.5 0,0.8284 -0.671573,1.5 -1.5,1.5 -0.828427,0 -1.5,-0.6716 -1.5,-1.5 0,-0.8284 0.671573,-1.5 1.5,-1.5 z"
         style="fill:#ffffff;fill-opacity:1;fill-rule:evenodd;stroke:none" />
      <path
         inkscape:connector-curvature="0"
         id="path3783"
         d="m 29.09375,997.5625 c -13.807119,0 -25,11.1929 -25,25 0,13.8071 11.192881,25 25,25 13.807119,0 25,-11.1929 25,-25 0,-9.8883 -5.731867,-18.4446 -14.0625,-22.5 l -3.5625,4.6563 3.40625,4.4374 -6.5625,7.2188 c 1.975122,1.3508 3.28125,3.614 3.28125,6.1875 0,4.1421 -3.357864,7.5 -7.5,7.5 -4.142136,0 -7.5,-3.3579 -7.5,-7.5 0,-4.1421 3.357864,-7.5 7.5,-7.5 1.48858,0 2.864697,0.4396 4.03125,1.1875 l 2.21875,-5.8125 -2.96875,-3.1563 1.0625,-7.2812 -1.53125,-2.28125 c -0.921739,-0.10302 -1.863261,-0.15625 -2.8125,-0.15625 z"
         style="opacity:0.51327431;fill:url(#radialGradient4008);fill-opacity:1;fill-rule:evenodd;stroke:none" />
      <path
         inkscape:connector-curvature="0"
         id="path3807"
         d="m 29.09375,997.5625 c -13.807119,0 -25,11.1929 -25,25 0,13.8071 11.192881,25 25,25 13.807119,0 25,-11.1929 25,-25 0,-9.8883 -5.731867,-18.4446 -14.0625,-22.5 l -3.5625,4.6563 3.40625,4.4374 -6.5625,7.2188 c 1.975122,1.3508 3.28125,3.614 3.28125,6.1875 0,4.1421 -3.357864,7.5 -7.5,7.5 -4.142136,0 -7.5,-3.3579 -7.5,-7.5 0,-4.1421 3.357864,-7.5 7.5,-7.5 1.48858,0 2.864697,0.4396 4.03125,1.1875 l 2.21875,-5.8125 -2.96875,-3.1563 1.0625,-7.2812 -1.53125,-2.28125 c -0.921739,-0.10302 -1.863261,-0.15625 -2.8125,-0.15625 z"
         style="opacity:0.51327431;fill:url(#radialGradient4051);fill-opacity:1;fill-rule:evenodd;stroke:none" />
      <path
         sodipodi:nodetypes="cssssc"
         inkscape:connector-curvature="0"
         id="path3811"
         d="m 34.75,1011.9688 c -1.686672,-0.9037 -3.608895,-1.4063 -5.65625,-1.4063 -6.630424,0 -12,5.3696 -12,12 0,6.6304 5.369576,12 12,12 6.630424,0 12,-5.3696 12,-12 0,-3.8913 -1.848808,-7.3688 -4.71875,-9.5625"
         style="fill:none;stroke:#000000;stroke-width:1;stroke-miterlimit:4;stroke-opacity:1;stroke-dasharray:none" />
      <path
         sodipodi:nodetypes="cssssc"
         inkscape:connector-curvature="0"
         id="path3813"
         d="m 32.5,1006.375 c -1.098542,-0.2297 -2.239499,-0.375 -3.40625,-0.375 -9.140513,0 -16.5625,7.422 -16.5625,16.5625 0,9.1405 7.421987,16.5313 16.5625,16.5313 9.140513,0 16.53125,-7.3908 16.53125,-16.5313 0,-5.2225 -2.408835,-9.873 -6.1875,-12.9063"
         style="fill:none;stroke:#000000;stroke-width:0.99999994;stroke-miterlimit:4;stroke-opacity:1;stroke-dasharray:none" />
      <path
         sodipodi:nodetypes="cssssc"
         inkscape:connector-curvature="0"
         id="path3815"
         d="m 33.125,1002.0938 c -1.308257,-0.2573 -2.647567,-0.375 -4.03125,-0.375 -11.508521,0 -20.84375,9.3352 -20.84375,20.8437 0,11.5085 9.335229,20.8437 20.84375,20.8437 11.508521,0 20.84375,-9.3352 20.84375,-20.8437 0,-8.5329 -5.15699,-15.8711 -12.5,-19.0937"
         style="fill:none;stroke:#000000;stroke-width:1;stroke-miterlimit:4;stroke-opacity:1;stroke-dasharray:none" />
      <path
         sodipodi:type="arc"
         style="fill:none;stroke:#000000;stroke-width:1.01100838;stroke-miterlimit:4;stroke-opacity:1;stroke-dasharray:none"
         id="path3819"
         sodipodi:cx="22.857143"
         sodipodi:cy="1024.8622"
         sodipodi:rx="13.75"
         sodipodi:ry="10.714286"
         d="m 36.607143,1024.8622 a 13.75,10.714286 0 1 1 -27.4999996,0 13.75,10.714286 0 1 1 27.4999996,0 z"
         transform="matrix(0.39747822,0,0,0.51009704,20.004948,499.77458)" />
      <path
         sodipodi:nodetypes="cccc"
         inkscape:connector-curvature="0"
         id="path4049"
         d="m 33.75,995.61218 1.625,3.62502 1.75,-3.00002 z"
         style="fill:#000000;fill-opacity:1;stroke:none" />
    </g>
    <path
       style="fill:#f6eb14;fill-opacity:1;stroke:#961d05;stroke-width:1px;stroke-linecap:butt;stroke-linejoin:miter;stroke-opacity:1"
       d="M 13.25,990.36218 6,1006.5497 l 12,0 -4.75,16.8125 14.375,-21.625 -11.875,0 5.375,-11.37502 z"
       id="path4056"
       inkscape:connector-curvature="0"
       sodipodi:nodetypes="cccccccc"
       inkscape:export-xdpi="84.983116"
       inkscape:export-ydpi="84.983116" />
  </g>
</svg>
